<svg width="18" height="16" viewBox="0 0 18 16" fill="none" xmlns="http://www.w3.org/2000/svg">
<path d="M14.8334 4.66667H14V0.5H4.00002V4.66667H3.16669C1.78335 4.66667 0.666687 5.78333 0.666687 7.16667V12.1667H4.00002V15.5H14V12.1667H17.3334V7.16667C17.3334 5.78333 16.2167 4.66667 14.8334 4.66667ZM5.66669 2.16667H12.3334V4.66667H5.66669V2.16667ZM12.3334 13.8333H5.66669V10.5H12.3334V13.8333ZM14 10.5V8.83333H4.00002V10.5H2.33335V7.16667C2.33335 6.70833 2.70835 6.33333 3.16669 6.33333H14.8334C15.2917 6.33333 15.6667 6.70833 15.6667 7.16667V10.5H14Z" fill="white"/>
</svg>
