<svg width="19" height="19" viewBox="0 0 19 19" fill="none"
    xmlns="http://www.w3.org/2000/svg">
    <path d="M9.38135 0.377808C4.32822 0.377808 0.193848 4.47781 0.193848 9.48892C0.193848 14.5 4.32822 18.6 9.38135 18.6C14.4345 18.6 18.5688 14.5 18.5688 9.48892C18.5688 4.47781 14.4345 0.377808 9.38135 0.377808ZM9.38135 16.7778C5.33885 16.7778 2.03135 13.4978 2.03135 9.48892C2.03135 5.48003 5.33885 2.20003 9.38135 2.20003C13.4238 2.20003 16.7313 5.48003 16.7313 9.48892C16.7313 13.4978 13.4238 16.7778 9.38135 16.7778ZM12.6888 4.93336L9.38135 8.21336L6.07385 4.93336L4.7876 6.20892L8.0951 9.48892L4.7876 12.7689L6.07385 14.0445L9.38135 10.7645L12.6888 14.0445L13.9751 12.7689L10.6676 9.48892L13.9751 6.20892L12.6888 4.93336Z" fill="red"/>
</svg>
