<svg width="10" height="12" viewBox="0 0 10 12" fill="none" xmlns="http://www.w3.org/2000/svg">
<path d="M6.4135 4.98L5.00016 6.39333L3.58016 4.98L2.64016 5.92L4.06016 7.33333L2.64683 8.74667L3.58683 9.68667L5.00016 8.27333L6.4135 9.68667L7.3535 8.74667L5.94016 7.33333L7.3535 5.92L6.4135 4.98ZM7.3335 0.666667L6.66683 0H3.3335L2.66683 0.666667H0.333496V2H9.66683V0.666667H7.3335ZM1.00016 10.6667C1.00016 11.4 1.60016 12 2.3335 12H7.66683C8.40016 12 9.00016 11.4 9.00016 10.6667V2.66667H1.00016V10.6667ZM2.3335 4H7.66683V10.6667H2.3335V4Z" fill="#FC3B3A"/>
</svg>
