<svg width="18" height="18" viewBox="0 0 18 18" fill="none" xmlns="http://www.w3.org/2000/svg">
<path d="M8.99984 0.666748C4.4165 0.666748 0.666504 4.41675 0.666504 9.00008C0.666504 13.5834 4.4165 17.3334 8.99984 17.3334C13.5832 17.3334 17.3332 13.5834 17.3332 9.00008C17.3332 4.41675 13.5832 0.666748 8.99984 0.666748ZM8.99984 15.6667C5.33317 15.6667 2.33317 12.6667 2.33317 9.00008C2.33317 5.33342 5.33317 2.33341 8.99984 2.33341C12.6665 2.33341 15.6665 5.33342 15.6665 9.00008C15.6665 12.6667 12.6665 15.6667 8.99984 15.6667ZM9.83317 8.16675H12.3332V9.83342H9.83317V12.3334H8.1665V9.83342H5.6665V8.16675H8.1665V5.66675H9.83317V8.16675Z" fill="#0762F7"/>
</svg>
