<svg width="22" height="16" viewBox="0 0 22 16" fill="none" xmlns="http://www.w3.org/2000/svg">
<path d="M11 2.5C14.8 2.5 18.2 4.6 19.8 8C18.2 11.4 14.8 13.5 11 13.5C7.2 13.5 3.8 11.4 2.2 8C3.8 4.6 7.2 2.5 11 2.5ZM11 0.5C6 0.5 1.7 3.6 0 8C1.7 12.4 6 15.5 11 15.5C16 15.5 20.3 12.4 22 8C20.3 3.6 16 0.5 11 0.5ZM11 5.5C12.4 5.5 13.5 6.6 13.5 8C13.5 9.4 12.4 10.5 11 10.5C9.6 10.5 8.5 9.4 8.5 8C8.5 6.6 9.6 5.5 11 5.5ZM11 3.5C8.5 3.5 6.5 5.5 6.5 8C6.5 10.5 8.5 12.5 11 12.5C13.5 12.5 15.5 10.5 15.5 8C15.5 5.5 13.5 3.5 11 3.5Z" fill="#0762F7"/>
<path d="M11 2.5C14.8 2.5 18.2 4.6 19.8 8C18.2 11.4 14.8 13.5 11 13.5C7.2 13.5 3.8 11.4 2.2 8C3.8 4.6 7.2 2.5 11 2.5ZM11 0.5C6 0.5 1.7 3.6 0 8C1.7 12.4 6 15.5 11 15.5C16 15.5 20.3 12.4 22 8C20.3 3.6 16 0.5 11 0.5ZM11 5.5C12.4 5.5 13.5 6.6 13.5 8C13.5 9.4 12.4 10.5 11 10.5C9.6 10.5 8.5 9.4 8.5 8C8.5 6.6 9.6 5.5 11 5.5ZM11 3.5C8.5 3.5 6.5 5.5 6.5 8C6.5 10.5 8.5 12.5 11 12.5C13.5 12.5 15.5 10.5 15.5 8C15.5 5.5 13.5 3.5 11 3.5Z" fill="black" fill-opacity="0.25"/>
</svg>
