<svg width="24" height="21" viewBox="0 0 24 21" fill="none" xmlns="http://www.w3.org/2000/svg">
<path d="M21.5 5H18.33L16.5 3H10.5V5H15.62L17.45 7H21.5V19H5.5V10H3.5V19C3.5 20.1 4.4 21 5.5 21H21.5C22.6 21 23.5 20.1 23.5 19V7C23.5 5.9 22.6 5 21.5 5ZM8.5 13C8.5 15.76 10.74 18 13.5 18C16.26 18 18.5 15.76 18.5 13C18.5 10.24 16.26 8 13.5 8C10.74 8 8.5 10.24 8.5 13ZM13.5 10C15.15 10 16.5 11.35 16.5 13C16.5 14.65 15.15 16 13.5 16C11.85 16 10.5 14.65 10.5 13C10.5 11.35 11.85 10 13.5 10ZM5.5 5H8.5V3H5.5V0H3.5V3H0.5V5H3.5V8H5.5V5Z" fill="#0762F7"/>
<path d="M21.5 5H18.33L16.5 3H10.5V5H15.62L17.45 7H21.5V19H5.5V10H3.5V19C3.5 20.1 4.4 21 5.5 21H21.5C22.6 21 23.5 20.1 23.5 19V7C23.5 5.9 22.6 5 21.5 5ZM8.5 13C8.5 15.76 10.74 18 13.5 18C16.26 18 18.5 15.76 18.5 13C18.5 10.24 16.26 8 13.5 8C10.74 8 8.5 10.24 8.5 13ZM13.5 10C15.15 10 16.5 11.35 16.5 13C16.5 14.65 15.15 16 13.5 16C11.85 16 10.5 14.65 10.5 13C10.5 11.35 11.85 10 13.5 10ZM5.5 5H8.5V3H5.5V0H3.5V3H0.5V5H3.5V8H5.5V5Z" fill="black" fill-opacity="0.25"/>
</svg>
