<svg width="14" height="14" viewBox="0 0 14 14" fill="none" xmlns="http://www.w3.org/2000/svg">
<path d="M10.0666 4.06665L5.66665 8.46665L3.26665 6.06665L2.33331 6.99998L5.66665 10.3333L11 4.99998L10.0666 4.06665ZM6.99998 0.333313C3.33331 0.333313 0.333313 3.33331 0.333313 6.99998C0.333313 10.6666 3.33331 13.6666 6.99998 13.6666C10.6666 13.6666 13.6666 10.6666 13.6666 6.99998C13.6666 3.33331 10.6666 0.333313 6.99998 0.333313ZM6.99998 12.3333C4.06665 12.3333 1.66665 9.93331 1.66665 6.99998C1.66665 4.06665 4.06665 1.66665 6.99998 1.66665C9.93331 1.66665 12.3333 4.06665 12.3333 6.99998C12.3333 9.93331 9.93331 12.3333 6.99998 12.3333Z" fill="#049254"/>
</svg>
