<svg width="16" height="10" viewBox="0 0 16 10" fill="none" xmlns="http://www.w3.org/2000/svg">
<path d="M8.00002 1.33333C10.5334 1.33333 12.8 2.73333 13.8667 5C12.8 7.26667 10.5334 8.66667 8.00002 8.66667C5.46669 8.66667 3.20002 7.26667 2.13335 5C3.20002 2.73333 5.46669 1.33333 8.00002 1.33333ZM8.00002 0C4.66669 0 1.80002 2.06667 0.666687 5C1.80002 7.93333 4.66669 10 8.00002 10C11.3334 10 14.2 7.93333 15.3334 5C14.2 2.06667 11.3334 0 8.00002 0ZM8.00002 3.33333C8.93335 3.33333 9.66669 4.06667 9.66669 5C9.66669 5.93333 8.93335 6.66667 8.00002 6.66667C7.06669 6.66667 6.33335 5.93333 6.33335 5C6.33335 4.06667 7.06669 3.33333 8.00002 3.33333ZM8.00002 2C6.33335 2 5.00002 3.33333 5.00002 5C5.00002 6.66667 6.33335 8 8.00002 8C9.66669 8 11 6.66667 11 5C11 3.33333 9.66669 2 8.00002 2Z" fill="#7A869A"/>
</svg>
