<svg width="14" height="12" viewBox="0 0 14 12" fill="none" xmlns="http://www.w3.org/2000/svg">
<path d="M11.6666 3.33333H11V0H2.99998V3.33333H2.33331C1.22665 3.33333 0.333313 4.22667 0.333313 5.33333V9.33333H2.99998V12H11V9.33333H13.6666V5.33333C13.6666 4.22667 12.7733 3.33333 11.6666 3.33333ZM4.33331 1.33333H9.66665V3.33333H4.33331V1.33333ZM9.66665 10.6667H4.33331V8H9.66665V10.6667ZM11 8V6.66667H2.99998V8H1.66665V5.33333C1.66665 4.96667 1.96665 4.66667 2.33331 4.66667H11.6666C12.0333 4.66667 12.3333 4.96667 12.3333 5.33333V8H11Z" fill="#049254"/>
</svg>
