<svg width="16" height="17" viewBox="0 0 16 17" fill="none" xmlns="http://www.w3.org/2000/svg">
<path d="M11.0668 5.56683L6.66683 9.96683L4.26683 7.56683L3.3335 8.50016L6.66683 11.8335L12.0002 6.50016L11.0668 5.56683ZM8.00016 1.8335C4.3335 1.8335 1.3335 4.8335 1.3335 8.50016C1.3335 12.1668 4.3335 15.1668 8.00016 15.1668C11.6668 15.1668 14.6668 12.1668 14.6668 8.50016C14.6668 4.8335 11.6668 1.8335 8.00016 1.8335ZM8.00016 13.8335C5.06683 13.8335 2.66683 11.4335 2.66683 8.50016C2.66683 5.56683 5.06683 3.16683 8.00016 3.16683C10.9335 3.16683 13.3335 5.56683 13.3335 8.50016C13.3335 11.4335 10.9335 13.8335 8.00016 13.8335Z" fill="#049254"/>
</svg>
