<svg width="16" height="17" viewBox="0 0 16 17" fill="none" xmlns="http://www.w3.org/2000/svg">
<path d="M12.2732 5.8335C12.5265 5.58016 12.6665 5.24683 12.6665 4.8935V3.16683H13.3332V1.8335H2.6665V3.16683H3.33317V4.8935C3.33317 5.24683 3.47317 5.58016 3.7265 5.8335L5.99984 8.10683V8.88683L3.7265 11.1668C3.47317 11.4202 3.33317 11.7535 3.33317 12.1068V13.8335H2.6665V15.1668H13.3332V13.8335H12.6665V12.1068C12.6665 11.7535 12.5265 11.4135 12.2732 11.1668L9.99984 8.8935V8.1135L12.2732 5.8335ZM11.3332 12.1068V13.8335H4.6665V12.1068L6.93984 9.8335C7.19317 9.58016 7.33317 9.24683 7.33317 8.8935V8.1135C7.33317 7.76016 7.19317 7.42016 6.93984 7.1735L4.6665 4.8935V3.16683H11.3332V4.8935L9.05984 7.16683C8.8065 7.42016 8.6665 7.7535 8.6665 8.10683V8.88683C8.6665 9.24016 8.8065 9.58016 9.05984 9.82683L11.3332 12.1068ZM10.6665 13.1668H5.33317V12.5002L7.99984 9.8335L10.6665 12.5002V13.1668Z" fill="#7F6604"/>
</svg>
