<svg width="20" height="20" viewBox="0 0 20 20" fill="none" xmlns="http://www.w3.org/2000/svg">
<rect width="20" height="20" rx="10" fill="#FECECE"/>
<path d="M9.99325 3.33325C6.31325 3.33325 3.33325 6.31992 3.33325 9.99992C3.33325 13.6799 6.31325 16.6666 9.99325 16.6666C13.6799 16.6666 16.6666 13.6799 16.6666 9.99992C16.6666 6.31992 13.6799 3.33325 9.99325 3.33325ZM9.99992 15.3333C7.05325 15.3333 4.66659 12.9466 4.66659 9.99992C4.66659 7.05325 7.05325 4.66659 9.99992 4.66659C12.9466 4.66659 15.3333 7.05325 15.3333 9.99992C15.3333 12.9466 12.9466 15.3333 9.99992 15.3333ZM10.3333 6.66659H9.33325V10.6666L12.8333 12.7666L13.3333 11.9466L10.3333 10.1666V6.66659Z" fill="#BD2C2B"/>
</svg>
