<svg width="25" height="25" viewBox="0 0 25 25" fill="none" xmlns="http://www.w3.org/2000/svg">
<path fill-rule="evenodd" clip-rule="evenodd" d="M1.98655 12.2148C1.98655 6.67 6.48152 2.17503 12.0263 2.17503C17.5712 2.17503 22.0661 6.67 22.0661 12.2148C22.0661 16.834 18.9458 20.7269 14.6962 21.896C13.5278 22.2174 13.1612 22.0111 13.1061 21.9715C13.0611 21.9391 13.0064 21.8575 13.0064 21.6757V17.0043C14.8422 16.8348 16.1069 16.1639 16.9197 15.2303C17.8345 14.1797 18.0532 12.9374 18.0337 12.1087V8.21115C18.0337 7.43967 17.549 6.93581 17.152 6.68552C16.9473 6.55652 16.7244 6.46457 16.5074 6.41465C16.3789 6.38506 16.1601 6.34822 15.9162 6.38834H13.2952V8.34853H16.0735V12.1342L16.0739 12.1474C16.087 12.6338 15.9526 13.3559 15.4414 13.9431C14.9553 14.5014 13.9989 15.086 12.0648 15.086V15.7834H12.0632V15.086C10.1291 15.086 9.17274 14.5014 8.68664 13.9431C8.17539 13.3559 8.04107 12.6338 8.05416 12.1474L8.05452 12.1342V8.34853H10.8328V6.38834H8.21179C7.96795 6.34822 7.74916 6.38506 7.62059 6.41465C7.40367 6.46457 7.18069 6.55652 6.97607 6.68552C6.57904 6.93581 6.09433 7.43967 6.09433 8.21115V12.1087C6.07485 12.9374 6.29355 14.1797 7.20829 15.2303C8.00999 16.1511 9.25112 16.8164 11.0462 16.997V21.6757C11.0462 22.148 11.1797 23.0003 11.9613 23.5626C12.7327 24.1177 13.8311 24.167 15.2162 23.7859C20.2945 22.3889 24.0263 17.7389 24.0263 12.2148C24.0263 5.58741 18.6537 0.214844 12.0263 0.214844C5.39894 0.214844 0.0263672 5.58741 0.0263672 12.2148C0.0263672 14.5496 0.694133 16.7314 1.84951 18.5762C1.52981 19.0937 1.34531 19.7035 1.34531 20.3565C1.34531 22.2298 2.86397 23.7485 4.73732 23.7485C6.61068 23.7485 8.12934 22.2298 8.12934 20.3565C8.12934 18.4831 6.61068 16.9645 4.73732 16.9645C4.24131 16.9645 3.77017 17.0709 3.3455 17.2622C2.48158 15.78 1.98655 14.0565 1.98655 12.2148ZM6.16915 20.3565C6.16915 21.1472 5.5281 21.7883 4.73732 21.7883C3.94655 21.7883 3.3055 21.1472 3.3055 20.3565C3.3055 19.5657 3.94655 18.9246 4.73732 18.9246C5.5281 18.9246 6.16915 19.5657 6.16915 20.3565Z" fill="white"/>
</svg>
