<svg width="24" height="24" viewBox="0 0 24 24" fill="none" xmlns="http://www.w3.org/2000/svg">
<path d="M23.9929 16.9254C23.9929 16.8046 23.936 16.6626 23.8579 16.5702C23.3392 15.9239 22.7992 15.2918 22.2735 14.6525C22.1953 14.5531 22.1314 14.4039 22.1314 14.2761C22.1243 11.0444 22.1243 7.81973 22.1243 4.58801C22.1243 3.44447 21.3143 2.63477 20.1705 2.63477C17.4635 2.63477 14.7637 2.63477 12.0568 2.63477C10.9271 2.63477 10.1172 3.44447 10.1172 4.5738C10.1172 9.51728 10.1172 14.4608 10.1172 19.4042C10.1172 20.5904 10.9129 21.3788 12.0994 21.3788C13.9467 21.3788 15.7939 21.3788 17.6412 21.3788C17.7477 21.3788 17.8472 21.3788 18.0106 21.3788C17.8756 21.812 18.1172 22.0606 18.3801 22.3021C18.6074 22.5152 18.8063 22.7567 19.0479 22.9556C19.3605 23.2184 19.5666 23.5025 19.4955 23.9357C19.4955 23.9499 19.5168 23.9642 19.5239 23.9713C19.7655 23.9713 20 23.9713 20.2415 23.9713C20.2415 23.8221 20.2273 23.6943 20.2415 23.5735C20.2841 23.2326 20.1705 22.984 19.9147 22.7496C19.5595 22.43 19.2184 22.0819 18.8916 21.7268C18.8135 21.6416 18.7495 21.4995 18.7495 21.3788C18.7424 19.3474 18.7424 17.3089 18.7424 15.2776C18.7424 14.8798 18.9556 14.6312 19.2966 14.6241C19.6376 14.617 19.865 14.8798 19.865 15.2918C19.865 16.0233 19.8508 16.7549 19.8721 17.4865C19.8792 17.6499 19.9502 17.8416 20.0568 17.9553C20.4902 18.417 20.9449 18.8573 21.3925 19.3048C21.5346 19.4468 21.6838 19.5534 21.8898 19.461C22.0888 19.3687 22.1243 19.1911 22.1172 18.9923C22.1101 18.0121 22.1172 17.0319 22.1172 16.0447C22.1172 15.9523 22.1243 15.86 22.1314 15.7676C22.4866 16.1015 22.7921 16.4495 23.0692 16.8188C23.1616 16.9396 23.2326 17.1172 23.2326 17.2734C23.2397 19.4042 23.2397 21.535 23.2397 23.6729C23.2397 23.7724 23.2397 23.8789 23.2397 23.9855C23.5097 23.9855 23.73 23.9855 23.9857 23.9855C23.9928 23.9144 23.9929 23.8576 23.9929 23.8079C24 21.5137 24 19.2196 23.9929 16.9254ZM21.357 18.1826C20.9946 17.7919 20.547 17.5717 20.6181 16.9609C20.682 16.3856 20.6394 15.8032 20.6323 15.2207C20.6252 14.5247 20.1492 13.9636 19.4955 13.8783C18.8419 13.7931 18.2522 14.1837 18.0532 14.8443C18.0106 14.9792 18.0106 15.1284 18.0035 15.2634C17.9964 16.279 18.0035 17.2947 18.0035 18.3459C17.904 18.353 17.8188 18.3672 17.7335 18.3672C15.5452 18.3672 13.3641 18.3601 11.1758 18.3743C10.9342 18.3743 10.8774 18.3104 10.8774 18.076C10.8845 14.0275 10.8845 9.97895 10.8845 5.93042C10.8845 5.84518 10.8916 5.75995 10.8987 5.65341C14.3943 5.65341 17.8685 5.65341 21.357 5.65341C21.357 9.82269 21.357 13.9636 21.357 18.1826Z" fill="white"/>
<path d="M16.54 22.1107C16.3552 22.9914 15.8437 23.2471 15.0835 23.2471C10.714 23.2329 6.33748 23.24 1.96803 23.24C1.23623 23.24 0.760213 22.7712 0.760213 22.0397C0.760213 16.3007 0.760213 10.5688 0.760213 4.82983C0.760213 4.73039 0.767318 4.62385 0.774423 4.51021C0.916519 4.51021 1.02309 4.51021 1.12966 4.51021C2.09591 4.51021 3.05506 4.51021 4.02131 4.51021C4.37655 4.51021 4.50444 4.38236 4.50444 4.02723C4.50444 3.21752 4.50444 2.40071 4.50444 1.591C4.50444 1.3282 4.50444 1.0583 4.50444 0.781296C4.61812 0.767091 4.69627 0.759988 4.77442 0.759988C8.2984 0.759988 11.8224 0.759988 15.3535 0.759988C15.4671 0.759988 15.5879 0.774194 15.6945 0.809707C16.206 0.965966 16.4476 1.34951 16.5258 1.86091C16.7673 1.86091 17.0018 1.86091 17.2433 1.86091C17.2504 1.80408 17.2575 1.76857 17.2575 1.73306C17.2362 0.831015 16.3694 0.00710269 15.4387 0.00710269C11.7087 0.00710269 7.97869 0.00710269 4.24867 0C4.03552 0 3.90053 0.0710269 3.77265 0.198875C2.57904 1.39923 1.38544 2.58538 0.191829 3.77863C0.0568384 3.91358 0 4.04853 0 4.24741C0.0071048 10.2066 0.0071048 16.1657 0 22.1249C0 23.098 0.8881 24 1.87567 23.9929C6.38011 23.9787 10.8917 23.9858 15.3961 23.9858C15.9361 23.9858 16.3908 23.7727 16.746 23.3821C17.0657 23.0411 17.2647 22.6292 17.2362 22.1036C17.087 22.1036 16.9663 22.1036 16.8455 22.1036C16.7389 22.1107 16.6323 22.1107 16.54 22.1107Z" fill="white"/>
<path d="M13.186 13.1252C14.1664 13.1323 15.1469 13.1252 16.1274 13.1252C17.1291 13.1252 18.1238 13.1323 19.1256 13.1252C19.7579 13.1181 20.241 12.628 20.241 12.003C20.2481 10.6393 20.2481 9.27554 20.241 7.91182C20.241 7.24417 19.7579 6.76119 19.0972 6.76119C17.1149 6.75408 15.1327 6.75408 13.1576 6.76119C12.4755 6.76119 11.9995 7.24417 11.9995 7.92603C11.9924 9.26133 11.9924 10.6037 11.9995 11.9391C11.9995 12.6422 12.4684 13.1181 13.186 13.1252ZM17.9959 8.26696C18.2517 8.26696 18.4719 8.26696 18.7064 8.26696C18.7064 9.38208 18.7064 10.483 18.7064 11.5981C18.4648 11.5981 18.2375 11.5981 17.9959 11.5981C17.9959 10.4901 17.9959 9.38918 17.9959 8.26696ZM16.511 8.26696C16.7668 8.26696 16.987 8.26696 17.2215 8.26696C17.2215 9.38208 17.2215 10.483 17.2215 11.5981C16.9799 11.5981 16.7526 11.5981 16.511 11.5981C16.511 10.4901 16.511 9.38918 16.511 8.26696ZM15.0261 8.26696C15.2819 8.26696 15.5021 8.26696 15.7366 8.26696C15.7366 9.38208 15.7366 10.483 15.7366 11.5981C15.495 11.5981 15.2677 11.5981 15.0261 11.5981C15.0261 10.4901 15.0261 9.38918 15.0261 8.26696ZM13.5483 8.26696C13.8041 8.26696 14.0243 8.26696 14.2588 8.26696C14.2588 9.38208 14.2588 10.483 14.2588 11.5981C14.0172 11.5981 13.7899 11.5981 13.5483 11.5981C13.5483 10.4901 13.5483 9.38918 13.5483 8.26696Z" fill="white"/>
<path d="M3.75826 5.99414H2.99805V9.38213H3.75826V5.99414Z" fill="white"/>
<path d="M3.75826 10.1211H2.99805V10.8811H3.75826V10.1211Z" fill="white"/>
<path d="M5.26412 5.99414H4.50391V9.38213H5.26412V5.99414Z" fill="white"/>
<path d="M5.26412 10.1211H4.50391V10.8811H5.26412V10.1211Z" fill="white"/>
<path d="M6.76412 5.99414H6.00391V9.38213H6.76412V5.99414Z" fill="white"/>
<path d="M6.76412 10.1211H6.00391V10.8811H6.76412V10.1211Z" fill="white"/>
<path d="M8.26217 5.99414H7.50195V9.38213H8.26217V5.99414Z" fill="white"/>
<path d="M8.26217 10.1211H7.50195V10.8811H8.26217V10.1211Z" fill="white"/>
<path d="M9.37696 11.9902H1.86719V12.7573H9.37696V11.9902Z" fill="white"/>
<path d="M9.37696 13.4883H1.86719V14.2554H9.37696V13.4883Z" fill="white"/>
<path d="M9.37696 14.9863H1.86719V15.7534H9.37696V14.9863Z" fill="white"/>
<path d="M9.37696 16.4863H1.86719V17.2534H9.37696V16.4863Z" fill="white"/>
<path d="M9.37696 17.9844H1.86719V18.7515H9.37696V17.9844Z" fill="white"/>
<path d="M9.37696 19.4824H1.86719V20.2495H9.37696V19.4824Z" fill="white"/>
<path d="M9.37696 20.9805H1.86719V21.7476H9.37696V20.9805Z" fill="white"/>
</svg>
