<svg width="16" height="16" viewBox="0 0 16 16" fill="none" xmlns="http://www.w3.org/2000/svg">
<path d="M8.79989 0.5H7.13322V8.83333H8.79989V0.5ZM12.8249 2.30834L11.6416 3.49169C12.3165 4.03309 12.8609 4.71942 13.2346 5.49985C13.6082 6.28027 13.8014 7.13475 13.7999 8C13.7999 9.5471 13.1853 11.0308 12.0913 12.1248C10.9974 13.2188 9.51365 13.8333 7.96656 13.8333C6.41946 13.8333 4.93574 13.2188 3.84177 12.1248C2.74781 11.0308 2.13322 9.5471 2.13322 8C2.13422 7.13482 2.32764 6.2807 2.6995 5.49952C3.07136 4.71833 3.61232 4.02964 4.28321 3.48335L3.10823 2.30834C2.27999 3.00744 1.61445 3.87902 1.15816 4.86213C0.701867 5.84525 0.465829 6.91616 0.466554 8C0.466554 9.98912 1.25674 11.8968 2.66326 13.3033C4.06978 14.7098 5.97743 15.5 7.96656 15.5C9.95568 15.5 11.8633 14.7098 13.2698 13.3033C14.6764 11.8968 15.4666 9.98912 15.4666 8C15.4714 6.91876 15.2405 5.84948 14.7901 4.86653C14.3396 3.88358 13.6804 3.0106 12.8582 2.30834H12.8249Z" fill="#0762F7"/>
<path d="M8.79989 0.5H7.13322V8.83333H8.79989V0.5ZM12.8249 2.30834L11.6416 3.49169C12.3165 4.03309 12.8609 4.71942 13.2346 5.49985C13.6082 6.28027 13.8014 7.13475 13.7999 8C13.7999 9.5471 13.1853 11.0308 12.0913 12.1248C10.9974 13.2188 9.51365 13.8333 7.96656 13.8333C6.41946 13.8333 4.93574 13.2188 3.84177 12.1248C2.74781 11.0308 2.13322 9.5471 2.13322 8C2.13422 7.13482 2.32764 6.2807 2.6995 5.49952C3.07136 4.71833 3.61232 4.02964 4.28321 3.48335L3.10823 2.30834C2.27999 3.00744 1.61445 3.87902 1.15816 4.86213C0.701867 5.84525 0.465829 6.91616 0.466554 8C0.466554 9.98912 1.25674 11.8968 2.66326 13.3033C4.06978 14.7098 5.97743 15.5 7.96656 15.5C9.95568 15.5 11.8633 14.7098 13.2698 13.3033C14.6764 11.8968 15.4666 9.98912 15.4666 8C15.4714 6.91876 15.2405 5.84948 14.7901 4.86653C14.3396 3.88358 13.6804 3.0106 12.8582 2.30834H12.8249Z" fill="black" fill-opacity="0.25"/>
</svg>
