<svg width="14" height="19" viewBox="0 0 14 19" fill="none" xmlns="http://www.w3.org/2000/svg">
<path d="M11.9999 6.66668H11.1666V5.00001C11.1666 3.89494 10.7276 2.83513 9.94619 2.05373C9.16479 1.27233 8.10499 0.833344 6.99992 0.833344C5.89485 0.833344 4.835 1.27233 4.0536 2.05373C3.2722 2.83513 2.83325 3.89494 2.83325 5.00001V6.66668H1.99992C1.55789 6.66668 1.13394 6.84227 0.821381 7.15483C0.50882 7.46739 0.333252 7.89132 0.333252 8.33334V16.6667C0.333252 17.1087 0.50882 17.5326 0.821381 17.8452C1.13394 18.1577 1.55789 18.3333 1.99992 18.3333H11.9999C12.4419 18.3333 12.8658 18.1577 13.1784 17.8452C13.491 17.5326 13.6666 17.1087 13.6666 16.6667V8.33334C13.6666 7.89132 13.491 7.46739 13.1784 7.15483C12.8658 6.84227 12.4419 6.66668 11.9999 6.66668ZM4.49992 5.00001C4.49992 4.33697 4.7633 3.70108 5.23214 3.23224C5.70098 2.7634 6.33688 2.50001 6.99992 2.50001C7.66296 2.50001 8.29881 2.7634 8.76765 3.23224C9.23649 3.70108 9.49992 4.33697 9.49992 5.00001V6.66668H4.49992V5.00001ZM11.9999 16.6667H1.99992V8.33334H11.9999V16.6667ZM6.99992 14.1667C7.44195 14.1667 7.86584 13.9911 8.17841 13.6785C8.49097 13.3659 8.66658 12.942 8.66658 12.5C8.66658 12.058 8.49097 11.6341 8.17841 11.3215C7.86584 11.0089 7.44195 10.8333 6.99992 10.8333C6.55789 10.8333 6.13394 11.0089 5.82138 11.3215C5.50882 11.6341 5.33325 12.058 5.33325 12.5C5.33325 12.942 5.50882 13.3659 5.82138 13.6785C6.13394 13.9911 6.55789 14.1667 6.99992 14.1667Z" fill="#7A869A"/>
</svg>
