<svg width="18" height="18" viewBox="0 0 18 18" fill="none" xmlns="http://www.w3.org/2000/svg">
<path d="M9.00008 0.666672C6.78994 0.666672 4.67033 1.54466 3.10753 3.10747C1.54473 4.67027 0.666748 6.78987 0.666748 9.00001C0.666748 11.2101 1.54473 13.3297 3.10753 14.8925C4.67033 16.4553 6.78994 17.3333 9.00008 17.3333C11.2102 17.3333 13.3298 16.4553 14.8926 14.8925C16.4554 13.3297 17.3334 11.2101 17.3334 9.00001C17.3334 6.78987 16.4554 4.67027 14.8926 3.10747C13.3298 1.54466 11.2102 0.666672 9.00008 0.666672ZM7.33342 13.1667L3.16675 9.00001L4.34175 7.82503L7.33342 10.8083L13.6584 4.48335L14.8334 5.66667L7.33342 13.1667Z" fill="#049254"/>
</svg>
