<svg width="20" height="20" viewBox="0 0 20 20" fill="none" xmlns="http://www.w3.org/2000/svg">
<path d="M14.1667 13.85C14.6822 13.85 15.1001 13.4321 15.1001 12.9167C15.1001 12.4012 14.6822 11.9833 14.1667 11.9833C13.6513 11.9833 13.2334 12.4012 13.2334 12.9167C13.2334 13.4321 13.6513 13.85 14.1667 13.85Z" fill="#0762F7"/>
<path d="M14.1667 13.85C14.6822 13.85 15.1001 13.4321 15.1001 12.9167C15.1001 12.4012 14.6822 11.9833 14.1667 11.9833C13.6513 11.9833 13.2334 12.4012 13.2334 12.9167C13.2334 13.4321 13.6513 13.85 14.1667 13.85Z" fill="black" fill-opacity="0.25"/>
<path fill-rule="evenodd" clip-rule="evenodd" d="M14.1667 14.5833C13.5584 14.5833 12.3417 14.8833 12.3 15.4833C12.5101 15.7837 12.7894 16.0292 13.1143 16.1989C13.4392 16.3686 13.8001 16.4576 14.1667 16.4583C14.5333 16.4576 14.8942 16.3686 15.2192 16.1989C15.5441 16.0292 15.8233 15.7837 16.0334 15.4833C15.9917 14.8833 14.775 14.5833 14.1667 14.5833Z" fill="#0762F7"/>
<path fill-rule="evenodd" clip-rule="evenodd" d="M14.1667 14.5833C13.5584 14.5833 12.3417 14.8833 12.3 15.4833C12.5101 15.7837 12.7894 16.0292 13.1143 16.1989C13.4392 16.3686 13.8001 16.4576 14.1667 16.4583C14.5333 16.4576 14.8942 16.3686 15.2192 16.1989C15.5441 16.0292 15.8233 15.7837 16.0334 15.4833C15.9917 14.8833 14.775 14.5833 14.1667 14.5833Z" fill="black" fill-opacity="0.25"/>
<path fill-rule="evenodd" clip-rule="evenodd" d="M15 9.27499V5.25832L8.75 2.53333L2.5 5.25832V9.34999C2.50433 11.2096 3.11779 13.0166 4.24652 14.4945C5.37525 15.9723 6.95709 17.0397 8.75 17.5333C9.20762 17.422 9.65394 17.2685 10.0833 17.075C10.5439 17.7304 11.1553 18.2655 11.8659 18.6353C12.5765 19.0051 13.3656 19.1988 14.1667 19.2C15.4927 19.2 16.7645 18.6732 17.7022 17.7355C18.6399 16.7978 19.1667 15.5261 19.1667 14.2C19.1655 13.0193 18.7465 11.877 17.9839 10.9756C17.2212 10.0742 16.1642 9.47178 15 9.27499ZM9.16667 14.2C9.1661 14.6568 9.23062 15.1114 9.35832 15.55C9.16072 15.6454 8.95759 15.7289 8.75 15.8C7.412 15.3321 6.25236 14.4602 5.43131 13.3048C4.61027 12.1494 4.16837 10.7674 4.16667 9.34999V6.34998L8.75 4.34999L13.3333 6.34998V9.27499C12.1747 9.47079 11.1221 10.0684 10.3602 10.9629C9.59828 11.8574 9.1757 12.9917 9.16667 14.1667V14.2ZM14.1667 17.5333C13.2826 17.5333 12.4348 17.1821 11.8096 16.557C11.1845 15.9319 10.8333 15.084 10.8333 14.2C10.8333 13.3159 11.1845 12.4681 11.8096 11.843C12.4348 11.2178 13.2826 10.8667 14.1667 10.8667C15.0507 10.8667 15.8986 11.2178 16.5237 11.843C17.1488 12.4681 17.5 13.3159 17.5 14.2C17.4912 15.0783 17.1362 15.9176 16.512 16.5355C15.8878 17.1534 15.045 17.5 14.1667 17.5V17.5333Z" fill="#0762F7"/>
<path fill-rule="evenodd" clip-rule="evenodd" d="M15 9.27499V5.25832L8.75 2.53333L2.5 5.25832V9.34999C2.50433 11.2096 3.11779 13.0166 4.24652 14.4945C5.37525 15.9723 6.95709 17.0397 8.75 17.5333C9.20762 17.422 9.65394 17.2685 10.0833 17.075C10.5439 17.7304 11.1553 18.2655 11.8659 18.6353C12.5765 19.0051 13.3656 19.1988 14.1667 19.2C15.4927 19.2 16.7645 18.6732 17.7022 17.7355C18.6399 16.7978 19.1667 15.5261 19.1667 14.2C19.1655 13.0193 18.7465 11.877 17.9839 10.9756C17.2212 10.0742 16.1642 9.47178 15 9.27499ZM9.16667 14.2C9.1661 14.6568 9.23062 15.1114 9.35832 15.55C9.16072 15.6454 8.95759 15.7289 8.75 15.8C7.412 15.3321 6.25236 14.4602 5.43131 13.3048C4.61027 12.1494 4.16837 10.7674 4.16667 9.34999V6.34998L8.75 4.34999L13.3333 6.34998V9.27499C12.1747 9.47079 11.1221 10.0684 10.3602 10.9629C9.59828 11.8574 9.1757 12.9917 9.16667 14.1667V14.2ZM14.1667 17.5333C13.2826 17.5333 12.4348 17.1821 11.8096 16.557C11.1845 15.9319 10.8333 15.084 10.8333 14.2C10.8333 13.3159 11.1845 12.4681 11.8096 11.843C12.4348 11.2178 13.2826 10.8667 14.1667 10.8667C15.0507 10.8667 15.8986 11.2178 16.5237 11.843C17.1488 12.4681 17.5 13.3159 17.5 14.2C17.4912 15.0783 17.1362 15.9176 16.512 16.5355C15.8878 17.1534 15.045 17.5 14.1667 17.5V17.5333Z" fill="black" fill-opacity="0.25"/>
</svg>
