<svg width="64" height="64" viewBox="0 0 64 64" xmlns="http://www.w3.org/2000/svg">
<path d="M16 17.3333C16.8267 17.3333 17.8667 17.7333 18.4 18.8267C19.04 20.16 18.4533 21.76 17.1467 22.4C16.7733 22.56 16.4 22.6667 16 22.6667C15.2 22.6667 14.1333 22.2667 13.6267 21.1733C13.1733 20.2667 13.36 19.4933 13.4933 19.0933C13.6267 18.72 13.9733 18.0267 14.8533 17.6C15.2267 17.44 15.6 17.3333 16 17.3333ZM33.2533 22.96L51.0933 29.3867C52.48 29.8933 53.5733 30.88 54.16 32.1867C54.7467 33.4667 54.8267 34.9333 54.32 36.2667L54.2933 36.32L31.3867 28.0267L33.2533 22.96ZM26.6667 40.5067L37.3333 44.3467V45.3333H26.6667V40.5067ZM16 12C14.8267 12 13.6533 12.2667 12.5333 12.8C8.56 14.6933 6.88 19.4667 8.8 23.4667C10.16 26.32 13.0133 28 16 28C17.1733 28 18.3467 27.7333 19.4667 27.2C23.44 25.28 25.12 20.5067 23.2267 16.5333C21.84 13.68 18.9867 12 16 12ZM30.08 16.1333L24.5333 31.2267L57.4933 43.1467L59.3333 38.1067C61.3867 32.5333 58.5067 26.4 52.9067 24.3733L30.08 16.1333ZM5.84 27.3333L4 32.3733L21.3333 38.6133V50.6667H42.6667V46.32L54.72 50.6667L56.56 45.6267L5.84 27.3333Z"/>
</svg>
