<svg width="64" height="64" viewBox="0 0 64 64" xmlns="http://www.w3.org/2000/svg">
<path d="M47.2 28.2665L43.2 24.5331L47.2 20.7998L43.2 16.7998L39.4667 20.7998L35.7333 16.7998L32 20.7998L35.7333 24.5331L32 28.2665L35.7333 31.9998L39.4667 28.2665L43.2 31.9998L47.2 28.2665Z"/>
<path d="M50.933 13.0663C44.7996 6.93298 34.3996 6.93298 28.2663 13.0663L13.0663 28.2663C6.93298 34.3996 6.93298 44.7996 13.0663 50.933C19.1996 57.0663 29.5996 57.0663 35.733 50.933L50.933 35.733C57.0663 29.5996 57.0663 19.4663 50.933 13.0663ZM47.1996 16.7996C51.4663 21.0663 51.4663 27.733 47.1996 31.9996L39.733 39.4663L24.533 24.533L31.9996 16.7996C36.2663 12.7996 42.933 12.7996 47.1996 16.7996Z"/>
</svg>
