<svg width="64" height="64" viewBox="0 0 64 64" xmlns="http://www.w3.org/2000/svg">
<path d="M44.0002 8C39.3602 8 34.9068 10.16 32.0002 13.5733C29.0935 10.16 24.6402 8 20.0002 8C11.7868 8 5.3335 14.4533 5.3335 22.6667C5.3335 32.7467 14.4002 40.96 28.1335 53.44L32.0002 56.9333L35.8668 53.4133C49.6002 40.96 58.6668 32.7467 58.6668 22.6667C58.6668 14.4533 52.2135 8 44.0002 8ZM32.2668 49.4667L32.0002 49.7333L31.7335 49.4667C19.0402 37.9733 10.6668 30.3733 10.6668 22.6667C10.6668 17.3333 14.6668 13.3333 20.0002 13.3333C24.1068 13.3333 28.1068 15.9733 29.5202 19.6267H34.5068C35.8935 15.9733 39.8935 13.3333 44.0002 13.3333C49.3335 13.3333 53.3335 17.3333 53.3335 22.6667C53.3335 30.3733 44.9602 37.9733 32.2668 49.4667Z"/>
<path d="M45.3335 25.1734L40.7468 20.5601L30.4535 30.8267L25.8935 26.2401L21.3335 30.8001L30.4535 40.0001L45.3335 25.1734Z"/>
</svg>
