<svg width="48" height="49" viewBox="0 0 48 49" xmlns="http://www.w3.org/2000/svg">
<path d="M24 0.973633C10.7467 0.973633 0 11.7203 0 25.0003C0 32.0936 3.09333 38.4936 8 42.867V43.667C8 46.6003 10.4 49.0003 13.3333 49.0003H34.6667C37.6267 49.0003 40 46.6003 40 43.667V42.867C44.9067 38.4936 48 32.0936 48 25.0003C48 11.7203 37.2533 0.973633 24 0.973633ZM33.28 43.6403H14.7467C13.9733 43.6403 13.3333 43.027 13.3333 42.2536C13.3333 41.6136 13.76 41.0803 14.3467 40.9203C14.48 40.8936 14.6133 40.867 14.7467 40.867H33.28C33.4133 40.867 33.5467 40.8936 33.68 40.9203C34.2667 41.107 34.6667 41.6136 34.6667 42.2536C34.6667 43.027 34.0533 43.6403 33.28 43.6403ZM38.2667 37.027C37.3067 36.147 36.0533 35.6403 34.6667 35.6403H13.3333C11.9467 35.6403 10.6933 36.147 9.76 37.0536C7.01333 33.8003 5.33333 29.587 5.33333 25.0003C5.33333 14.6803 13.7067 6.30697 24 6.30697C34.32 6.30697 42.6667 14.6803 42.6667 25.0003C42.6667 29.587 41.0133 33.7736 38.2667 37.027Z"/>
<path d="M26.6665 14.3071H21.3332C15.4398 14.3071 10.6665 19.1071 10.6665 24.9738V25.0005C10.6665 27.9338 11.8665 30.6005 13.7865 32.5471C13.9198 32.6805 14.0798 32.8405 14.2398 32.9738H33.7598C35.9465 31.0005 37.3332 28.1471 37.3332 25.0005V24.9738C37.3332 19.1071 32.5598 14.3071 26.6665 14.3071ZM31.2798 27.6405H16.7198C16.2398 26.8671 15.9998 25.9605 15.9998 24.9738C15.9998 23.5071 16.5865 22.1738 17.5465 21.2138C18.5332 20.2271 19.8665 19.6405 21.3332 19.6405H26.6665C29.5998 19.6405 31.9998 22.0405 31.9998 24.9738C31.9998 25.9605 31.7332 26.8671 31.2798 27.6405Z"/>
</svg>
