<svg width="64" height="64" viewBox="0 0 64 64" xmlns="http://www.w3.org/2000/svg">
<path d="M24.0002 50.6669C24.0002 55.2002 20.5335 58.6669 16.0002 58.6669C11.4668 58.6669 8.00016 55.2002 8.00016 50.6669C8.00016 49.0669 8.5335 47.4669 9.3335 46.1336C6.9335 42.1336 5.3335 37.0669 5.3335 32.0002C5.3335 26.6669 6.9335 21.8669 9.3335 17.8669C10.1335 16.5336 12.2668 16.2669 13.6002 17.3336C14.4002 18.1336 14.6668 19.4669 13.8668 20.5336C12.0002 24.0002 10.6668 27.7336 10.6668 32.0002C10.6668 36.0002 11.7335 39.7336 13.6002 42.9336C14.4002 42.9336 15.2002 42.6669 16.0002 42.6669C20.5335 42.6669 24.0002 46.1336 24.0002 50.6669ZM16.0002 48.0002C14.4002 48.0002 13.3335 49.0669 13.3335 50.6669C13.3335 52.2669 14.4002 53.3336 16.0002 53.3336C17.6002 53.3336 18.6668 52.2669 18.6668 50.6669C18.6668 49.0669 17.6002 48.0002 16.0002 48.0002ZM32.8002 5.33356C27.4668 5.06689 22.1335 6.66689 17.8668 9.33356C16.2668 10.4002 16.2668 12.2669 17.3335 13.6002C18.1335 14.4002 19.4668 14.6669 20.5335 13.8669C24.0002 11.7336 28.0002 10.6669 32.0002 10.6669C42.4002 10.6669 51.4668 18.4002 53.0668 28.5336C54.6668 39.2002 48.2668 49.3336 38.1335 52.2669C36.5335 52.8002 34.6668 51.7336 34.6668 49.6002V42.6669C40.5335 42.6669 45.3335 37.8669 45.3335 32.0002V21.3336C45.3335 19.7336 44.2668 18.6669 42.6668 18.6669H34.6668V24.0002H40.0002V32.0002C40.0002 34.9336 37.6002 37.3336 34.6668 37.3336H29.3335C26.4002 37.3336 24.0002 34.9336 24.0002 32.0002V24.0002H29.3335V18.6669H21.3335C19.7335 18.6669 18.6668 19.7336 18.6668 21.3336V32.0002C18.6668 37.8669 23.4668 42.6669 29.3335 42.6669V49.3336C29.3335 56.2669 36.0002 58.6669 39.7335 57.3336C51.2002 53.8669 59.2002 43.2002 58.6668 30.9336C58.4002 17.3336 46.6668 5.60022 32.8002 5.33356Z"/>
</svg>
