<svg width="20" height="20" viewBox="0 0 20 20" fill="none" xmlns="http://www.w3.org/2000/svg">
<path d="M9.99958 19.9992C4.49981 19.9992 0 15.4832 0 9.96374C0.0714256 4.44426 4.57124 0 10.1424 0C15.5708 0 20.0706 4.58762 19.9992 10.0354C19.9992 15.5549 15.4993 20.0708 9.99958 19.9992ZM17.2136 10.0354C17.2136 6.09293 13.9994 2.79558 10.071 2.79558C6.1426 2.79558 2.85702 6.02125 2.85702 10.0354C2.85702 14.0496 6.07117 17.2753 9.99958 17.2753C13.9994 17.2036 17.2136 13.9779 17.2136 10.0354Z" fill="white"/>
<path d="M7.71412 11.6123C8.35695 12.0424 8.92835 12.4008 9.64261 12.4725C9.71403 12.4725 9.85689 12.4725 9.92831 12.4725C10.2854 12.4725 10.5711 12.3291 10.6426 11.9707C10.714 11.6123 10.4997 11.3972 10.214 11.2539C9.71403 10.9671 9.21405 10.8238 8.71408 10.5371C7.35699 9.82024 6.85701 8.60165 7.35699 7.31138C7.64269 6.59457 8.14267 6.16448 8.7855 5.87775C9.0712 5.80607 9.14263 5.6627 9.0712 5.37598C9.0712 5.08925 9.0712 4.73084 9.0712 4.37244C9.71403 4.37244 10.3569 4.37244 11.0711 4.37244C11.0711 4.73084 11.0711 5.16093 11.0711 5.51934C11.6425 5.73439 12.1425 5.94943 12.6425 6.16448C12.7139 6.23616 12.8568 6.37952 12.7853 6.4512C12.5711 7.02465 12.3568 7.59811 12.1425 8.17156C11.6425 7.95651 11.1425 7.74147 10.6426 7.59811C10.4283 7.52643 10.1426 7.52643 9.92831 7.59811C9.78546 7.59811 9.57118 7.81315 9.57118 7.95652C9.57118 8.09988 9.64261 8.3866 9.78546 8.45829C10.1426 8.67333 10.5711 8.81669 10.9283 9.03174C11.3568 9.24678 11.7854 9.46183 12.0711 9.74855C13.4996 10.9671 13.2853 13.1893 11.6425 14.1211C11.4282 14.2645 11.214 14.3362 10.9997 14.4079C10.9997 14.8379 10.9997 15.3397 10.9997 15.7698C10.3569 15.7698 9.71403 15.7698 9.0712 15.7698C9.0712 15.3397 9.0712 14.9813 9.0712 14.5512C8.57122 14.3362 8.07125 14.1928 7.64269 13.9778C6.92844 13.6194 6.92844 13.6194 7.21414 12.9025C7.35699 12.4725 7.49984 12.0424 7.71412 11.6123Z" fill="white"/>
</svg>
