<svg width="20" height="22" viewBox="0 0 20 22" fill="none" xmlns="http://www.w3.org/2000/svg">
<path d="M1 10.9834C1 8.38769 1 5.75874 1 3.16306C1 1.96506 2.10593 1 3.47881 1C6.72034 1 9.92373 1 13.1271 1C13.4703 1 13.7373 1.09983 13.9661 1.33278C15.5297 2.93012 17.0932 4.52745 18.6949 6.12479C18.8856 6.32446 19 6.5574 19 6.82363C19 10.8503 19 14.8769 19 18.9035C19 20.0349 17.8941 21 16.5975 21C12.2119 21 7.82627 21 3.44068 21C2.10593 21 1 20.0349 1 18.8702C1 16.2413 1 13.6123 1 10.9834ZM12.4407 2.43095C12.3263 2.43095 12.25 2.43095 12.1737 2.43095C9.31356 2.43095 6.45339 2.43095 3.59322 2.43095C2.94492 2.43095 2.63983 2.69717 2.63983 3.29617C2.63983 8.45424 2.63983 13.579 2.63983 18.7371C2.63983 19.3028 2.94492 19.5691 3.59322 19.5691C7.86441 19.5691 12.0975 19.5691 16.3686 19.5691C17.0169 19.5691 17.322 19.3028 17.322 18.7371C17.322 15.0433 17.322 11.3827 17.322 7.68885C17.322 7.6223 17.322 7.52246 17.322 7.45591C17.2076 7.45591 17.0932 7.45591 17.0169 7.45591C15.7585 7.45591 14.5381 7.45591 13.2797 7.45591C12.7458 7.45591 12.4025 7.15641 12.4025 6.69052C12.4025 6.29118 12.4025 5.92513 12.4025 5.52579C12.4407 4.49418 12.4407 3.46256 12.4407 2.43095ZM14.1186 3.69551C14.1186 4.4609 14.1186 5.22629 14.1186 5.9584C14.8814 5.9584 15.6059 5.9584 16.4068 5.9584C15.6441 5.19301 14.9195 4.4609 14.1949 3.72879C14.1568 3.72879 14.1568 3.72879 14.1186 3.69551Z" fill="#172B4D" stroke="#172B4D" stroke-width="0.6"/>
<path d="M7.6173 8.63907C7.6173 8.34768 7.6173 8.05629 7.6173 7.7649C7.6173 7.32781 8.02626 7 8.517 7C9.00774 7 9.3758 7.36424 9.3758 7.80132C9.3758 8.09272 9.3758 8.38411 9.3758 8.6755C10.1119 8.78477 10.8071 9.03974 11.3388 9.54967C11.7477 9.95033 11.9931 10.4238 11.9931 10.9702C11.9931 11.3709 11.625 11.6987 11.2161 11.7351C10.7662 11.7715 10.3164 11.5166 10.2755 11.1159C10.2346 10.5331 9.82565 10.351 9.29401 10.2417C8.72148 10.1325 8.14894 10.1325 7.57641 10.2781C7.12656 10.3874 6.7585 10.6788 6.7585 10.9338C6.7585 11.1887 7.12656 11.5166 7.57641 11.6258C7.94446 11.6987 8.35342 11.7351 8.72148 11.7351C9.33491 11.7715 9.90744 11.8444 10.48 12.0993C11.4206 12.5364 12.0749 13.1921 11.9931 14.2119C11.9522 15.1589 11.2979 15.7781 10.3164 16.1424C10.0301 16.2517 9.70296 16.3245 9.3758 16.3974C9.3758 16.6523 9.3758 16.9437 9.3758 17.1987C9.3758 17.6722 9.00774 18 8.517 18C8.02626 18 7.6582 17.6722 7.6582 17.1987C7.6582 16.9437 7.6582 16.6523 7.6582 16.4702C7.16745 16.2881 6.67671 16.1788 6.26776 15.9238C5.53164 15.5232 5.0409 14.904 5 14.1026C5 13.6656 5.32716 13.3013 5.81791 13.3013C6.30865 13.2649 6.7176 13.5563 6.7585 14.0298C6.7994 14.3212 6.96298 14.5033 7.20835 14.6126C8.06715 14.9404 8.96685 14.9768 9.78476 14.6126C10.3982 14.3576 10.3573 13.957 9.86655 13.6291C9.45759 13.3377 8.96685 13.3013 8.4761 13.3013C7.90357 13.3013 7.37193 13.2285 6.84029 13.0464C6.30865 12.8642 5.8588 12.6093 5.53164 12.2086C4.67284 11.1887 4.9591 9.84106 6.18596 9.14901C6.39044 9.03973 6.63581 8.93046 6.88119 8.85762C7.08566 8.71192 7.37193 8.6755 7.6173 8.63907Z" fill="#172B4D"/>
</svg>
