<svg width="20" height="20" viewBox="0 0 20 20" fill="none" xmlns="http://www.w3.org/2000/svg">
<path d="M9.99958 19.9992C4.49981 19.9992 0 15.4832 0 9.96374C0.0714256 4.44426 4.57124 0 10.1424 0C15.5708 0 20.0706 4.58762 19.9992 10.0354C19.9992 15.5549 15.4993 20.0708 9.99958 19.9992ZM17.2136 10.0354C17.2136 6.09293 13.9994 2.79558 10.071 2.79558C6.1426 2.79558 2.85702 6.02125 2.85702 10.0354C2.85702 14.0496 6.07117 17.2753 9.99958 17.2753C13.9994 17.2036 17.2136 13.9779 17.2136 10.0354Z" fill="white"/>
<path d="M7.71399 11.6122C8.35682 12.0422 8.92823 12.4007 9.64249 12.4723C9.71391 12.4723 9.85676 12.4723 9.92819 12.4723C10.2853 12.4723 10.571 12.329 10.6424 11.9706C10.7139 11.6122 10.4996 11.3971 10.2139 11.2537C9.71391 10.967 9.21393 10.8237 8.71395 10.5369C7.35687 9.82011 6.85689 8.60153 7.35687 7.31126C7.64257 6.59444 8.14255 6.16435 8.78538 5.87763C9.07108 5.80595 9.14251 5.66258 9.07108 5.37586C9.07108 5.08913 9.07108 4.73072 9.07108 4.37231C9.71391 4.37231 10.3567 4.37231 11.071 4.37231C11.071 4.73072 11.071 5.16081 11.071 5.51922C11.6424 5.73426 12.1424 5.94931 12.6424 6.16435C12.7138 6.23604 12.8566 6.3794 12.7852 6.45108C12.5709 7.02453 12.3567 7.59799 12.1424 8.17144C11.6424 7.95639 11.1424 7.74135 10.6424 7.59799C10.4282 7.5263 10.1425 7.5263 9.92819 7.59799C9.78534 7.59799 9.57106 7.81303 9.57106 7.95639C9.57106 8.09976 9.64249 8.38648 9.78534 8.45816C10.1425 8.67321 10.571 8.81657 10.9281 9.03162C11.3567 9.24666 11.7853 9.46171 12.071 9.74843C13.4995 10.967 13.2852 13.1891 11.6424 14.121C11.4281 14.2644 11.2138 14.3361 10.9996 14.4077C10.9996 14.8378 10.9996 15.3396 10.9996 15.7697C10.3567 15.7697 9.71391 15.7697 9.07108 15.7697C9.07108 15.3396 9.07108 14.9812 9.07108 14.5511C8.5711 14.3361 8.07112 14.1927 7.64257 13.9776C6.92831 13.6192 6.92831 13.6192 7.21402 12.9024C7.35687 12.4723 7.49972 12.0422 7.71399 11.6122Z" fill="white"/>
</svg>
