<svg width="17" height="13" viewBox="0 0 17 13" fill="none" xmlns="http://www.w3.org/2000/svg">
<path fill-rule="evenodd" clip-rule="evenodd" d="M12.937 6.95025H13.7018C14.3343 6.95025 14.849 7.45362 14.849 8.07212V8.82003C14.849 9.43857 14.3343 9.9419 13.7018 9.9419H12.937C12.3044 9.9419 11.7897 9.43857 11.7897 8.82003V8.07212C11.7897 7.45358 12.3044 6.95025 12.937 6.95025ZM13.7018 9.19403C13.9128 9.19403 14.0842 9.02649 14.0842 8.82006V8.07216C14.0842 7.86573 13.9128 7.69819 13.7018 7.69819H12.937C12.7259 7.69819 12.5545 7.86573 12.5545 8.07216V8.82006C12.5545 9.02649 12.7259 9.19403 12.937 9.19403H13.7018Z" fill="black"/>
<path d="M7.14174 7.68941H2.53494C2.32303 7.68941 2.15103 7.85761 2.15103 8.06484C2.15103 8.27207 2.32303 8.44024 2.53494 8.44024H7.14174C7.35365 8.44024 7.52565 8.27204 7.52565 8.06481C7.52565 7.85758 7.35365 7.68941 7.14174 7.68941Z" fill="black"/>
<path d="M7.14174 9.19107H2.53494C2.32303 9.19107 2.15103 9.35927 2.15103 9.5665C2.15103 9.77373 2.32303 9.94193 2.53494 9.94193H7.14174C7.35365 9.94193 7.52565 9.77373 7.52565 9.5665C7.52562 9.35927 7.35365 9.19107 7.14174 9.19107Z" fill="black"/>
<path fill-rule="evenodd" clip-rule="evenodd" d="M1.91334 0H15.0867C16.1434 0 17 0.856629 17 1.91334V10.2045C17 11.2612 16.1434 12.1178 15.0867 12.1178H1.91334C0.85663 12.1178 0 11.2612 0 10.2045V1.91334C0 0.856629 0.856629 0 1.91334 0ZM1.91334 0.956668C1.38498 0.956668 0.956668 1.38498 0.956668 1.91334V3.31952H16.0433V1.91334C16.0433 1.38498 15.615 0.956668 15.0867 0.956668H1.91334ZM16.0433 4.27619H0.956668V10.2045C0.956668 10.7328 1.38498 11.1611 1.91334 11.1611H15.0867C15.615 11.1611 16.0433 10.7328 16.0433 10.2045V4.27619Z" fill="black"/>
</svg>
