<svg width="16" height="14" viewBox="0 0 16 14" fill="none" xmlns="http://www.w3.org/2000/svg">
<path d="M15.5 8.99976C15.224 8.99976 15 9.22376 15 9.49976V12.9998H1V6.99976H6.5C6.776 6.99976 7 6.77576 7 6.49976C7 6.22376 6.776 5.99976 6.5 5.99976H1V3.99976H6.5C6.776 3.99976 7 3.77576 7 3.49976C7 3.22376 6.776 2.99976 6.5 2.99976H1C0.448 2.99976 0 3.44776 0 3.99976V12.9998C0 13.5518 0.448 13.9998 1 13.9998H15C15.552 13.9998 16 13.5518 16 12.9998V9.49976C16 9.22376 15.776 8.99976 15.5 8.99976Z" fill="black"/>
<path d="M4.5 8.99976H2.5C2.224 8.99976 2 9.22376 2 9.49976C2 9.77576 2.224 9.99976 2.5 9.99976H4.5C4.776 9.99976 5 9.77576 5 9.49976C5 9.22376 4.776 8.99976 4.5 8.99976Z" fill="black"/>
<path d="M15.697 1.53975L12.197 0.03975C12.07 -0.01325 11.929 -0.01325 11.802 0.03975L8.302 1.53975C8.119 1.61875 8 1.79975 8 1.99975V3.99975C8 6.75075 9.017 8.35875 11.751 9.93375C11.828 9.97775 11.914 9.99975 12 9.99975C12.086 9.99975 12.172 9.97775 12.249 9.93375C14.983 8.36275 16 6.75475 16 3.99975V1.99975C16 1.79975 15.881 1.61875 15.697 1.53975ZM15 3.99975C15 6.30875 14.236 7.57975 12 8.91975C9.764 7.57675 9 6.30575 9 3.99975V2.32975L12 1.04375L15 2.32975V3.99975Z" fill="black"/>
<path d="M13.813 3.10873C13.598 2.93873 13.284 2.97173 13.11 3.18673L11.538 5.15273L10.916 4.22273C10.761 3.99273 10.45 3.93173 10.223 4.08373C9.99402 4.23673 9.93102 4.54773 10.084 4.77673L11.084 6.27673C11.173 6.40973 11.319 6.49173 11.479 6.49973C11.486 6.49973 11.494 6.49973 11.5 6.49973C11.651 6.49973 11.795 6.43173 11.891 6.31173L13.891 3.81173C14.063 3.59573 14.029 3.28173 13.813 3.10873Z" fill="black"/>
</svg>
